<?xml version="1.0" encoding="UTF-8"?>
<svg width="33px" height="25px" viewBox="0 0 33 25" version="1.1" xmlns="http://www.w3.org/2000/svg" xmlns:xlink="http://www.w3.org/1999/xlink">
    <!-- Generator: Sketch 63.1 (92452) - https://sketch.com -->
    <title>crown-solid</title>
    <desc>Created with Sketch.</desc>
    <g id="Page-1" stroke="none" stroke-width="1" fill="none" fill-rule="evenodd">
        <g id="Meaning-Of-Life" transform="translate(-94.000000, -391.000000)" fill="#FFD700" fill-rule="nonzero">
            <g id="crown-solid" transform="translate(94.000000, 391.000000)">
                <path d="M26.4409938,22.2222222 L5.1242236,22.2222222 C4.67329193,22.2222222 4.30434783,22.5347222 4.30434783,22.9166667 L4.30434783,24.3055556 C4.30434783,24.6875 4.67329193,25 5.1242236,25 L26.4409938,25 C26.8919255,25 27.2608696,24.6875 27.2608696,24.3055556 L27.2608696,22.9166667 C27.2608696,22.5347222 26.8919255,22.2222222 26.4409938,22.2222222 Z M30.525,6.41025641 C29.1585937,6.41025641 28.05,7.48697917 28.05,8.81410256 C28.05,9.16967147 28.1325,9.50020032 28.276875,9.8056891 L24.54375,11.9791667 C23.7496875,12.4399038 22.7235937,12.1794872 22.2646875,11.3982372 L18.0623438,4.2568109 C18.6140625,3.81610577 18.975,3.15504808 18.975,2.40384615 C18.975,1.07672276 17.8664063,0 16.5,0 C15.1335938,0 14.025,1.07672276 14.025,2.40384615 C14.025,3.15504808 14.3859375,3.81610577 14.9376562,4.2568109 L10.7353125,11.3982372 C10.2764062,12.1794872 9.24515625,12.4399038 8.45625,11.9791667 L4.72828125,9.8056891 C4.8675,9.50520833 4.95515625,9.16967147 4.95515625,8.81410256 C4.95515625,7.48697917 3.8465625,6.41025641 2.48015625,6.41025641 C1.11375,6.41025641 0,7.48697917 0,8.81410256 C0,10.141226 1.10859375,11.2179487 2.475,11.2179487 C2.6090625,11.2179487 2.743125,11.1979167 2.87203125,11.1778846 L6.6,20.8333333 L26.4,20.8333333 L30.1279687,11.1778846 C30.256875,11.1979167 30.3909375,11.2179487 30.525,11.2179487 C31.8914062,11.2179487 33,10.141226 33,8.81410256 C33,7.48697917 31.8914062,6.41025641 30.525,6.41025641 Z" id="Shape"></path>
            </g>
        </g>
    </g>
</svg>