<?xml version="1.0" encoding="UTF-8"?>
<svg width="33px" height="30px" viewBox="0 0 33 30" version="1.1" xmlns="http://www.w3.org/2000/svg" xmlns:xlink="http://www.w3.org/1999/xlink">
    <!-- Generator: Sketch 63.1 (92452) - https://sketch.com -->
    <title>head-side-brain-duotone</title>
    <desc>Created with Sketch.</desc>
    <g id="Page-1" stroke="none" stroke-width="1" fill="none" fill-rule="evenodd">
        <g id="Meaning-Of-Life" transform="translate(-98.000000, -827.000000)" fill-rule="nonzero">
            <g id="head-side-brain-duotone" transform="translate(98.000000, 827.000000)">
                <path d="M32.8221172,16.1132812 C31.472389,13.3523437 29.6998232,7.22285156 28.1116043,5.17089844 C25.6008034,1.92939039 21.5124874,0.000579254123 17.1513467,0 L12.3757323,0 C5.54329696,0 1.95065198e-07,5.0390625 1.95065198e-07,11.25 C-0.000624725136,14.4465871 1.50029473,17.4913121 4.12524435,19.6183594 L4.12524435,30 L20.6262202,30 L20.6262202,26.25 L24.7514642,26.25 C27.0297735,26.25 28.8767081,24.5710678 28.8767081,22.5 L28.8767081,18.75 L30.9393301,18.75 C31.63724,18.7493978 32.2874796,18.4280178 32.6674667,17.895871 C33.0474538,17.3637243 33.1056436,16.6929958 32.8221172,16.1132812 L32.8221172,16.1132812 Z M21.6575312,12.1875 L18.3740948,12.1875 C18.4960981,12.4877688 18.5602059,12.804919 18.5635982,13.125 C18.5635982,14.6783009 17.1783972,15.9375 15.4696652,15.9375 C15.1175553,15.9344162 14.7686694,15.8761399 14.4383543,15.7652344 L14.4383543,18.75 L10.3131103,18.75 L10.3131103,15.7652344 C9.98279511,15.8761399 9.63390925,15.9344162 9.2817993,15.9375 C7.57306731,15.9375 6.18786633,14.6783009 6.18786633,13.125 C6.18786633,13.0664062 6.20269143,13.0142578 6.20655884,12.9580078 C4.779549,12.5112248 3.9173465,11.1917832 4.16834566,9.83889916 C4.41934483,8.48601509 5.70990399,7.49661677 7.21917732,7.5 C7.21917732,5.94669914 8.6043783,4.6875 10.3131103,4.6875 C10.8459799,4.69020705 11.3688167,4.81947946 11.829782,5.0625 C12.3927174,4.24591485 13.3782442,3.75007751 14.4383543,3.75007751 C15.4984643,3.75007751 16.4839911,4.24591485 17.0469265,5.0625 C17.8372479,4.6456907 18.7913508,4.57245138 19.6473705,4.86288342 C20.5033901,5.15331545 21.1713893,5.77690479 21.4680278,6.5625 L21.6575312,6.5625 C23.3662632,6.56250003 24.7514641,7.82169916 24.7514641,9.375 C24.7514641,10.9283008 23.3662632,12.1875 21.6575312,12.1875 Z" id="Shape" fill="#FFFFFF" opacity="0.883142671"></path>
                <path d="M4.16387268,8.64194383 C4.58075838,7.50752597 5.72084787,6.74713546 7.00064077,6.74994186 C7.00064077,5.19663298 8.3437359,3.93742733 10.0005277,3.93742733 C10.5171997,3.9401344 11.0241439,4.06940747 11.4710973,4.31242927 C12.0169212,3.4958399 12.972491,3 14.0003769,3 C15.0282629,3 15.9838327,3.4958399 16.5296566,4.31242927 C17.2959547,3.89561782 18.2210558,3.82237811 19.0510551,4.11281165 C19.8810544,4.40324519 20.5287485,5.02683775 20.8163701,5.81243702 L21.0001131,5.81243702 C22.6569049,5.81243705 24,7.07164269 24,8.62495155 C24,10.1782604 22.6569049,11.4374661 21.0001131,11.4374661 L17.8164831,11.4374661 C17.9347779,11.7377364 17.996937,12.0548883 18.0002262,12.3749709 C18.0002262,13.9282798 16.6571311,15.1874855 15.0003393,15.1874855 C14.6589324,15.1844017 14.3206516,15.126125 14.0003769,15.015219 L14.0003769,18 L10.0005277,18 L10.0005277,15.015219 C9.68025309,15.126125 9.34197228,15.1844017 9.00056539,15.1874855 C7.34377358,15.1874855 6.00067846,13.9282798 6.00067846,12.3749709 C6.00067846,12.3163769 6.01505291,12.2642282 6.01880277,12.2079779 C4.45625998,11.703456 3.6257891,10.1069066 4.16387268,8.64194383 L4.16387268,8.64194383 Z" id="Path" fill="#000000"></path>
            </g>
        </g>
    </g>
</svg>