<?xml version="1.0" encoding="iso-8859-1"?>
<!-- Generator: Adobe Illustrator 18.1.1, SVG Export Plug-In . SVG Version: 6.00 Build 0)  -->
<svg version="1.1" id="Capa_1" xmlns="http://www.w3.org/2000/svg" xmlns:xlink="http://www.w3.org/1999/xlink" x="0px" y="0px"
	 viewBox="0 0 612.003 612.003" style="enable-background:new 0 0 612.003 612.003;" xml:space="preserve">
<g>
	<g>
		<circle cx="397.138" cy="201.916" r="17.146"/>
		<path d="M600.981,271.942h-0.787c-13.475,0-24.4-10.925-24.4-24.4v-13.113c0-25.346-19.866-46.814-45.202-47.477
			c-16.157-0.422-30.526,7.465-39.165,19.679l-29.283-23.049c-7.317-21.114-23.247-39.06-44.958-48.143
			c-10.02-4.19-20.537-6.317-31.262-6.317c-15.011,0-29.72,4.2-42.539,12.146c-8.601,5.333-33.415,32.545-40.866,40.814
			c-10.352,11.493-105.369,114.43-252.562,189.803L0,396.179l210.532,7.147c11.156,10.493,24.083,18.706,38.487,24.444
			c8.882,3.537,18.027,5.996,27.337,7.384l25.689,25.689h-2.789c-12.172,0-22.038,9.867-22.038,22.038l0,0h87.637l0,0
			c0-12.172-9.867-22.038-22.038-22.038h-9.602l-25.113-25.113c44.68-4.965,83.058-33.848,100.012-76.406
			c8.708-21.859,10.942-45.281,6.56-68.157c13.02-10.922,25.703-21.626,29.048-25.055c3.419-3.503,6.479-7.329,9.196-11.391
			l30.002-12.003v53.621c0,13.475-10.925,24.4-24.4,24.4h-0.326c-6.034,0-11.295,4.65-11.476,10.681
			c-0.187,6.24,4.815,11.358,11.015,11.358h0.787c25.646,0,46.438-20.792,46.438-46.438v-62.438l14.002-5.601l-10.168-8.003
			c4.656-7.298,13.066-11.981,22.501-11.247c12.806,0.995,22.465,12.131,22.465,24.976v13.516c0,25.646,20.792,46.438,46.438,46.438
			h0.326c6.034,0,11.295-4.65,11.476-10.681C612.183,277.06,607.18,271.942,600.981,271.942z M399.159,275.413l-9.05,7.602
			l1.676,6.682c5.141,20.499,3.707,41.755-4.148,61.47c-15.317,38.448-51.949,63.29-93.328,63.29
			c-12.715,0-25.209-2.408-37.136-7.161c-12.963-5.163-24.46-12.763-34.169-22.588l-3.082-3.117l-132.931-4.51
			c135.31-75.305,221.923-169.172,231.948-180.303c19.998-22.194,33.136-34.876,36.055-36.779
			c9.327-5.782,20.022-8.837,30.926-8.837c7.789,0,15.446,1.551,22.756,4.611c26.591,11.122,41.248,40.546,34.095,68.442
			c-2.575,10.042-7.702,19.207-14.827,26.508C424.966,253.776,406.882,268.938,399.159,275.413z M464.937,226.176
			c0.776-3.717,1.273-7.446,1.51-11.162l8.894,7L464.937,226.176z"/>
	</g>
</g>
<g>
</g>
<g>
</g>
<g>
</g>
<g>
</g>
<g>
</g>
<g>
</g>
<g>
</g>
<g>
</g>
<g>
</g>
<g>
</g>
<g>
</g>
<g>
</g>
<g>
</g>
<g>
</g>
<g>
</g>
</svg>
