<?xml version="1.0" encoding="UTF-8"?>
<svg width="53px" height="42px" viewBox="0 0 53 42" version="1.1" xmlns="http://www.w3.org/2000/svg" xmlns:xlink="http://www.w3.org/1999/xlink">
    <!-- Generator: Sketch 63.1 (92452) - https://sketch.com -->
    <title>skull-cow-light</title>
    <desc>Created with Sketch.</desc>
    <g id="Page-1" stroke="none" stroke-width="1" fill="none" fill-rule="evenodd">
        <g id="Game:-Profile-Expert" transform="translate(-175.000000, -851.000000)" fill="#FFFFFF" fill-rule="nonzero">
            <g id="skull-cow-light" transform="translate(175.000000, 851.000000)">
                <path d="M49.9574688,0.376749827 C49.5145768,-0.0547173509 48.8285267,-0.123480122 48.307354,0.2113589 C47.7861813,0.546197923 47.5698199,1.19473507 47.7869531,1.77124601 C48.289625,3.09355651 49.4100781,7.31559877 48.0254531,9.29332247 C47.4623281,10.0947476 46.4909375,10.5007921 45.05,10.5007921 L39.0046875,10.4860269 C38.0638262,8.87484299 36.3290753,7.88070396 34.45,7.87585812 L18.55,7.87585812 C16.6642054,7.87990502 14.9239781,8.88064039 13.985375,10.5007921 L7.95,10.5007921 C6.51320313,10.5007921 5.5418125,10.0963882 4.9786875,9.29496305 C3.58992187,7.31970023 4.67807812,3.19363211 5.2171875,1.77042572 C5.43270654,1.19458265 5.21627587,0.547695319 4.69622306,0.213320641 C4.17617025,-0.121054036 3.49156497,-0.0534994215 3.04832812,0.375929536 C1.08070313,2.28228784 0,4.93675234 0,7.85124936 C0,13.6326665 4.75592188,18.3755941 10.6,18.3755941 L13.25,18.3755941 L13.25,24.937929 C13.25,27.8373511 15.6228908,30.187797 18.55,30.187797 L20.73625,39.9435282 C21.0050392,41.1437796 22.078834,41.9984399 23.32,42 L29.6684063,42 C30.908763,42 31.9833126,41.1481385 32.2546406,39.9492703 L34.45,30.187797 C37.3771092,30.187797 39.75,27.8373511 39.75,24.937929 L39.75,18.3755941 L42.4,18.3755941 C48.2457344,18.3755941 53,13.6318462 53,7.85124936 C53,4.93757263 51.9234375,2.28310814 49.9574688,0.376749827 Z M13.25,14.5384615 L10.4893437,14.5384615 C7.4258779,14.5384615 4.74717857,13.2201477 3.3125,11.3076923 C4.22955552,11.8964992 5.62368695,12.4046201 7.72868739,12.4046201 L13.25,12.4046201 L13.25,14.5384615 Z M36.4375,24.2307692 C36.4375,25.6906548 35.2325164,26.8741259 33.7460938,26.8741259 L31.5845581,26.8741259 L31.1152441,28.9433785 L28.8897876,38.7692308 L22.4421875,38.7692308 L20.2217773,28.9450306 L19.7541455,26.8741259 L17.5976562,26.8741259 C16.1112336,26.8741259 14.90625,25.6906548 14.90625,24.2307692 L14.90625,12.3356643 C14.90625,10.8757788 16.1112336,9.69230769 17.5976562,9.69230769 L33.7460938,9.69230769 C35.2325164,9.69230769 36.4375,10.8757788 36.4375,12.3356643 L36.4375,24.2307692 Z M42.5125749,14.5384615 L39.75,14.5384615 L39.75,12.4037389 C39.75,12.3990692 39.75,12.3950666 39.75,12.391064 L45.2751499,12.4037389 C47.37816,12.4037389 48.7715338,11.8967423 49.6875,11.3076923 C48.2552776,13.2196032 45.5747166,14.5384615 42.5125749,14.5384615 Z M20.703125,17.7692308 C19.3310426,17.7692308 18.21875,18.8540793 18.21875,20.1923077 C18.21875,21.5305361 19.3310426,22.6153846 20.703125,22.6153846 C22.0752074,22.6153846 23.1875,21.5305361 23.1875,20.1923077 C23.1875,18.8540793 22.0752074,17.7692308 20.703125,17.7692308 Z M32.296875,17.7692308 C30.9247926,17.7692308 29.8125,18.8540793 29.8125,20.1923077 C29.8125,21.5305361 30.9247926,22.6153846 32.296875,22.6153846 C33.6689574,22.6153846 34.78125,21.5305361 34.78125,20.1923077 C34.78125,18.8540793 33.6689574,17.7692308 32.296875,17.7692308 Z" id="Shape"></path>
            </g>
        </g>
    </g>
</svg>